<svg xmlns="http://www.w3.org/2000/svg" id="sprotty_dependencies$project:MEMulator" class="sprotty-graph sprotty-dependencies-diagram dependencies" style="font-family:&quot;Noto Sans&quot;, Helvetica, Arial, sans-serif;-webkit-locale:&quot;en&quot;;perspective-origin:0px 0px;transform-origin:0px 0px;" version="1.1" viewBox="7 7 1182.90625 444" width="1182.90625" height="444"><g transform="scale(1) translate(0,0)"><g id="sprotty_dependencies$project:MEMulator/FileNodeImpl$MEMSyncTop.sv" class="file" transform="translate(365, 190)"><rect x="0" y="0" width="129.640625" height="44" class="sprotty-node" style="fill:rgb(255, 255, 255);stroke:rgb(48, 48, 48);"/><text class="clickable sprotty-label file" id="sprotty_dependencies$project:MEMulator/FileNodeImpl$MEMSyncTop.sv/label" transform="translate(5, 10) translate(59.484375, 19)" style="cursor:default;perspective-origin:0.328125px 0px;fill:rgb(48, 48, 48);text-anchor:middle;">MEMSyncTop.sv</text></g><g id="sprotty_dependencies$project:MEMulator/FileNodeImpl$BankGroup.sv" class="file" transform="translate(729, 264)"><rect x="0" y="0" width="115.296875" height="44" class="sprotty-node" style="fill:rgb(255, 255, 255);stroke:rgb(48, 48, 48);"/><text class="clickable sprotty-label file" id="sprotty_dependencies$project:MEMulator/FileNodeImpl$BankGroup.sv/label" transform="translate(5, 10) translate(52.3125, 19)" style="cursor:default;perspective-origin:0.328125px 0px;fill:rgb(48, 48, 48);text-anchor:middle;">BankGroup.sv</text></g><g id="sprotty_dependencies$project:MEMulator/FileNodeImpl$WrappedDIMM.sv" class="file" transform="translate(140, 12)"><rect x="0" y="0" width="140.09375" height="44" class="sprotty-node" style="fill:rgb(255, 255, 255);stroke:rgb(48, 48, 48);"/><text class="clickable sprotty-label file" id="sprotty_dependencies$project:MEMulator/FileNodeImpl$WrappedDIMM.sv/label" transform="translate(5, 10) translate(64.71875, 19)" style="cursor:default;perspective-origin:0.328125px 0px;fill:rgb(48, 48, 48);text-anchor:middle;">WrappedDIMM.sv</text></g><g id="sprotty_dependencies$project:MEMulator/FileNodeImpl$testbnch_CMD.sv" class="file" transform="translate(532, 96)"><rect x="0" y="0" width="139.4375" height="44" class="sprotty-node" style="fill:rgb(255, 255, 255);stroke:rgb(48, 48, 48);"/><text class="clickable sprotty-label file" id="sprotty_dependencies$project:MEMulator/FileNodeImpl$testbnch_CMD.sv/label" transform="translate(5, 10) translate(64.390625, 19)" style="cursor:default;perspective-origin:0.328125px 0px;fill:rgb(48, 48, 48);text-anchor:middle;">testbnch_CMD.sv</text></g><g id="sprotty_dependencies$project:MEMulator/FileNodeImpl$testbnch_BankInterleaving.sv" class="file" transform="translate(600, 12)"><rect x="0" y="0" width="232.421875" height="44" class="sprotty-node" style="fill:rgb(255, 255, 255);stroke:rgb(48, 48, 48);"/><text class="clickable sprotty-label file" id="sprotty_dependencies$project:MEMulator/FileNodeImpl$testbnch_BankInterleaving.sv/label" transform="translate(5, 10) translate(110.875, 19)" style="cursor:default;perspective-origin:0.328125px 0px;fill:rgb(48, 48, 48);text-anchor:middle;">testbnch_BankInterleaving.sv</text></g><g id="sprotty_dependencies$project:MEMulator/FileNodeImpl$TimingFSM.sv" class="file" transform="translate(949, 190)"><rect x="0" y="0" width="113.953125" height="44" class="sprotty-node" style="fill:rgb(255, 255, 255);stroke:rgb(48, 48, 48);"/><text class="clickable sprotty-label file" id="sprotty_dependencies$project:MEMulator/FileNodeImpl$TimingFSM.sv/label" transform="translate(5, 10) translate(51.640625, 19)" style="cursor:default;perspective-origin:0.328125px 0px;fill:rgb(48, 48, 48);text-anchor:middle;">TimingFSM.sv</text></g><g id="sprotty_dependencies$project:MEMulator/FileNodeImpl$DIMM.sv" class="file" transform="translate(409, 96)"><rect x="0" y="0" width="72.609375" height="44" class="sprotty-node" style="fill:rgb(255, 255, 255);stroke:rgb(48, 48, 48);"/><text class="clickable sprotty-label file" id="sprotty_dependencies$project:MEMulator/FileNodeImpl$DIMM.sv/label" transform="translate(5, 10) translate(30.96875, 19)" style="cursor:default;perspective-origin:0.328125px 0px;fill:rgb(48, 48, 48);text-anchor:middle;">DIMM.sv</text></g><g id="sprotty_dependencies$project:MEMulator/FileNodeImpl$bank_array.sv" class="file" transform="translate(555, 402)"><rect x="0" y="0" width="114.921875" height="44" class="sprotty-node" style="fill:rgb(255, 255, 255);stroke:rgb(48, 48, 48);"/><text class="clickable sprotty-label file" id="sprotty_dependencies$project:MEMulator/FileNodeImpl$bank_array.sv/label" transform="translate(5, 10) translate(52.125, 19)" style="cursor:default;perspective-origin:0.328125px 0px;fill:rgb(48, 48, 48);text-anchor:middle;">bank_array.sv</text></g><g id="sprotty_dependencies$project:MEMulator/FileNodeImpl$testbnch_DIMM.sv" class="file" transform="translate(1038, 12)"><rect x="0" y="0" width="146.90625" height="44" class="sprotty-node" style="fill:rgb(255, 255, 255);stroke:rgb(48, 48, 48);"/><text class="clickable sprotty-label file" id="sprotty_dependencies$project:MEMulator/FileNodeImpl$testbnch_DIMM.sv/label" transform="translate(5, 10) translate(68.125, 19)" style="cursor:default;perspective-origin:0.328125px 0px;fill:rgb(48, 48, 48);text-anchor:middle;">testbnch_DIMM.sv</text></g><g id="sprotty_dependencies$project:MEMulator/FileNodeImpl$testbnch_MEMSync.sv" class="file" transform="translate(12, 190)"><rect x="0" y="0" width="176.4375" height="44" class="sprotty-node" style="fill:rgb(255, 255, 255);stroke:rgb(48, 48, 48);"/><text class="clickable sprotty-label file" id="sprotty_dependencies$project:MEMulator/FileNodeImpl$testbnch_MEMSync.sv/label" transform="translate(5, 10) translate(82.890625, 19)" style="cursor:default;perspective-origin:0.328125px 0px;fill:rgb(48, 48, 48);text-anchor:middle;">testbnch_MEMSync.sv</text></g><g id="sprotty_dependencies$project:MEMulator/FileNodeImpl$CMD.sv" class="file" transform="translate(545, 190)"><rect x="0" y="0" width="65.140625" height="44" class="sprotty-node" style="fill:rgb(255, 255, 255);stroke:rgb(48, 48, 48);"/><text class="clickable sprotty-label file" id="sprotty_dependencies$project:MEMulator/FileNodeImpl$CMD.sv/label" transform="translate(5, 10) translate(27.234375, 19)" style="cursor:default;perspective-origin:0.328125px 0px;fill:rgb(48, 48, 48);text-anchor:middle;">CMD.sv</text></g><g id="sprotty_dependencies$project:MEMulator/FileNodeImpl$Chip.sv" class="file" transform="translate(754, 190)"><rect x="0" y="0" width="65.015625" height="44" class="sprotty-node" style="fill:rgb(255, 255, 255);stroke:rgb(48, 48, 48);"/><text class="clickable sprotty-label file" id="sprotty_dependencies$project:MEMulator/FileNodeImpl$Chip.sv/label" transform="translate(5, 10) translate(27.171875, 19)" style="cursor:default;perspective-origin:0.328125px 0px;fill:rgb(48, 48, 48);text-anchor:middle;">Chip.sv</text></g><g id="sprotty_dependencies$project:MEMulator/FileNodeImpl$testbnch_TimingFSM.sv" class="file" transform="translate(912, 96)"><rect x="0" y="0" width="188.25" height="44" class="sprotty-node" style="fill:rgb(255, 255, 255);stroke:rgb(48, 48, 48);"/><text class="clickable sprotty-label file" id="sprotty_dependencies$project:MEMulator/FileNodeImpl$testbnch_TimingFSM.sv/label" transform="translate(5, 10) translate(88.796875, 19)" style="cursor:default;perspective-origin:0.328125px 0px;fill:rgb(48, 48, 48);text-anchor:middle;">testbnch_TimingFSM.sv</text></g><g id="sprotty_dependencies$project:MEMulator/FileNodeImpl$testbnch_RefInterleaving.sv" class="file" transform="translate(331, 12)"><rect x="0" y="0" width="218.328125" height="44" class="sprotty-node" style="fill:rgb(255, 255, 255);stroke:rgb(48, 48, 48);"/><text class="clickable sprotty-label file" id="sprotty_dependencies$project:MEMulator/FileNodeImpl$testbnch_RefInterleaving.sv/label" transform="translate(5, 10) translate(103.828125, 19)" style="cursor:default;perspective-origin:0.328125px 0px;fill:rgb(48, 48, 48);text-anchor:middle;">testbnch_RefInterleaving.sv</text></g><g id="sprotty_dependencies$project:MEMulator/FileNodeImpl$MEMSync.sv" class="file" transform="translate(374, 264)"><rect x="0" y="0" width="102.15625" height="44" class="sprotty-node" style="fill:rgb(255, 255, 255);stroke:rgb(48, 48, 48);"/><text class="clickable sprotty-label file" id="sprotty_dependencies$project:MEMulator/FileNodeImpl$MEMSync.sv/label" transform="translate(5, 10) translate(45.75, 19)" style="cursor:default;perspective-origin:0.328125px 0px;fill:rgb(48, 48, 48);text-anchor:middle;">MEMSync.sv</text></g><g id="sprotty_dependencies$project:MEMulator/FileNodeImpl$memtiming.sv" class="file" transform="translate(947, 264)"><rect x="0" y="0" width="117.875" height="44" class="sprotty-node" style="fill:rgb(255, 255, 255);stroke:rgb(48, 48, 48);"/><text class="clickable sprotty-label file" id="sprotty_dependencies$project:MEMulator/FileNodeImpl$memtiming.sv/label" transform="translate(5, 10) translate(53.609375, 19)" style="cursor:default;perspective-origin:0.328125px 0px;fill:rgb(48, 48, 48);text-anchor:middle;">memtiming.sv</text></g><g id="sprotty_dependencies$project:MEMulator/FileNodeImpl$Bank.sv" class="file" transform="translate(577, 338)"><rect x="0" y="0" width="69.3125" height="44" class="sprotty-node" style="fill:rgb(255, 255, 255);stroke:rgb(48, 48, 48);"/><text class="clickable sprotty-label file" id="sprotty_dependencies$project:MEMulator/FileNodeImpl$Bank.sv/label" transform="translate(5, 10) translate(29.328125, 19)" style="cursor:default;perspective-origin:0.328125px 0px;fill:rgb(48, 48, 48);text-anchor:middle;">Bank.sv</text></g><g id="sprotty_dependencies$project:MEMulator/FileNodeImpl$testbnch_Chip.sv" class="file" transform="translate(722, 96)"><rect x="0" y="0" width="139.296875" height="44" class="sprotty-node" style="fill:rgb(255, 255, 255);stroke:rgb(48, 48, 48);"/><text class="clickable sprotty-label file" id="sprotty_dependencies$project:MEMulator/FileNodeImpl$testbnch_Chip.sv/label" transform="translate(5, 10) translate(64.3125, 19)" style="cursor:default;perspective-origin:0.328125px 0px;fill:rgb(48, 48, 48);text-anchor:middle;">testbnch_Chip.sv</text></g><g id="sprotty_dependencies$project:MEMulator/FileNodeImpl$tristate.v" class="file" transform="translate(239, 190)"><rect x="0" y="0" width="75.71875" height="44" class="sprotty-node" style="fill:rgb(255, 255, 255);stroke:rgb(48, 48, 48);"/><text class="clickable sprotty-label file" id="sprotty_dependencies$project:MEMulator/FileNodeImpl$tristate.v/label" transform="translate(5, 10) translate(32.53125, 19)" style="cursor:default;perspective-origin:0.328125px 0px;fill:rgb(48, 48, 48);text-anchor:middle;">tristate.v</text></g><g id="sprotty_dependencies$project:MEMulator/FileNodeImpl$testbnch_MEMSyncTop.sv" class="file" transform="translate(155, 96)"><rect x="0" y="0" width="203.921875" height="44" class="sprotty-node" style="fill:rgb(255, 255, 255);stroke:rgb(48, 48, 48);"/><text class="clickable sprotty-label file" id="sprotty_dependencies$project:MEMulator/FileNodeImpl$testbnch_MEMSyncTop.sv/label" transform="translate(5, 10) translate(96.625, 19)" style="cursor:default;perspective-origin:0.328125px 0px;fill:rgb(48, 48, 48);text-anchor:middle;">testbnch_MEMSyncTop.sv</text></g><g id="sprotty_dependencies$project:MEMulator/FileNodeImpl$testbnch_Bank.sv" class="file" transform="translate(535, 264)"><rect x="0" y="0" width="143.609375" height="44" class="sprotty-node" style="fill:rgb(255, 255, 255);stroke:rgb(48, 48, 48);"/><text class="clickable sprotty-label file" id="sprotty_dependencies$project:MEMulator/FileNodeImpl$testbnch_Bank.sv/label" transform="translate(5, 10) translate(66.46875, 19)" style="cursor:default;perspective-origin:0.328125px 0px;fill:rgb(48, 48, 48);text-anchor:middle;">testbnch_Bank.sv</text></g><g id="sprotty_dependencies$project:MEMulator/FileNodeImpl$MEMSyncTop.sv_to_dependencies$project:MEMulator/FileNodeImpl$MEMSync.sv" class="sprotty-edge dependency" style="fill:none;stroke:rgb(48, 48, 48);stroke-linejoin:round;"><g><path d=" M430,234 L430,264"/><path d=" M430,234 L430,264" class="clickable" style="cursor:default;"/></g><path d="M 430,264 L 437,261.5 L 437,266.5 Z" transform="rotate(-90 430 264)" class="arrow" style="fill:rgb(48, 48, 48);stroke-linejoin:miter;stroke-miterlimit:2;"/></g><g id="sprotty_dependencies$project:MEMulator/FileNodeImpl$BankGroup.sv_to_dependencies$project:MEMulator/FileNodeImpl$Bank.sv" class="sprotty-edge dependency" style="fill:none;stroke:rgb(48, 48, 48);stroke-linejoin:round;"><g><path d=" M787,308 L787,323 L617,323 L617,338"/><path d=" M787,308 L787,323 L617,323 L617,338" class="clickable" style="cursor:default;"/></g><path d="M 617,338 L 624,335.5 L 624,340.5 Z" transform="rotate(-90 617 338)" class="arrow" style="fill:rgb(48, 48, 48);stroke-linejoin:miter;stroke-miterlimit:2;"/></g><g id="sprotty_dependencies$project:MEMulator/FileNodeImpl$WrappedDIMM.sv_to_dependencies$project:MEMulator/FileNodeImpl$DIMM.sv" class="sprotty-edge dependency" style="fill:none;stroke:rgb(48, 48, 48);stroke-linejoin:round;"><g><path d=" M210,56 L210,71 L430,71 L430,96"/><path d=" M210,56 L210,71 L430,71 L430,96" class="clickable" style="cursor:default;"/></g><path d="M 430,96 L 437,93.5 L 437,98.5 Z" transform="rotate(-90 430 96)" class="arrow" style="fill:rgb(48, 48, 48);stroke-linejoin:miter;stroke-miterlimit:2;"/></g><g id="sprotty_dependencies$project:MEMulator/FileNodeImpl$testbnch_CMD.sv_to_dependencies$project:MEMulator/FileNodeImpl$CMD.sv" class="sprotty-edge dependency" style="fill:none;stroke:rgb(48, 48, 48);stroke-linejoin:round;"><g><path d=" M602,140 L602,175 L583,175 L583,190"/><path d=" M602,140 L602,175 L583,175 L583,190" class="clickable" style="cursor:default;"/></g><path d="M 583,190 L 590,187.5 L 590,192.5 Z" transform="rotate(-90 583 190)" class="arrow" style="fill:rgb(48, 48, 48);stroke-linejoin:miter;stroke-miterlimit:2;"/></g><g id="sprotty_dependencies$project:MEMulator/FileNodeImpl$testbnch_BankInterleaving.sv_to_dependencies$project:MEMulator/FileNodeImpl$DIMM.sv" class="sprotty-edge dependency" style="fill:none;stroke:rgb(48, 48, 48);stroke-linejoin:round;"><g><path d=" M716,56 L716,71 L450,71 L450,96"/><path d=" M716,56 L716,71 L450,71 L450,96" class="clickable" style="cursor:default;"/></g><path d="M 450,96 L 457,93.5 L 457,98.5 Z" transform="rotate(-90 450 96)" class="arrow" style="fill:rgb(48, 48, 48);stroke-linejoin:miter;stroke-miterlimit:2;"/></g><g id="sprotty_dependencies$project:MEMulator/FileNodeImpl$TimingFSM.sv_to_dependencies$project:MEMulator/FileNodeImpl$memtiming.sv" class="sprotty-edge dependency" style="fill:none;stroke:rgb(48, 48, 48);stroke-linejoin:round;"><g><path d=" M1006,234 L1006,264"/><path d=" M1006,234 L1006,264" class="clickable" style="cursor:default;"/></g><path d="M 1006,264 L 1013,261.5 L 1013,266.5 Z" transform="rotate(-90 1006 264)" class="arrow" style="fill:rgb(48, 48, 48);stroke-linejoin:miter;stroke-miterlimit:2;"/></g><g id="sprotty_dependencies$project:MEMulator/FileNodeImpl$DIMM.sv_to_dependencies$project:MEMulator/FileNodeImpl$MEMSyncTop.sv" class="sprotty-edge dependency" style="fill:none;stroke:rgb(48, 48, 48);stroke-linejoin:round;"><g><path d=" M435,140 L435,190"/><path d=" M435,140 L435,190" class="clickable" style="cursor:default;"/></g><path d="M 435,190 L 442,187.5 L 442,192.5 Z" transform="rotate(-90 435 190)" class="arrow" style="fill:rgb(48, 48, 48);stroke-linejoin:miter;stroke-miterlimit:2;"/></g><g id="sprotty_dependencies$project:MEMulator/FileNodeImpl$DIMM.sv_to_dependencies$project:MEMulator/FileNodeImpl$CMD.sv" class="sprotty-edge dependency" style="fill:none;stroke:rgb(48, 48, 48);stroke-linejoin:round;"><g><path d=" M445,140 L445,175 L573,175 L573,190"/><path d=" M445,140 L445,175 L573,175 L573,190" class="clickable" style="cursor:default;"/></g><path d="M 573,190 L 580,187.5 L 580,192.5 Z" transform="rotate(-90 573 190)" class="arrow" style="fill:rgb(48, 48, 48);stroke-linejoin:miter;stroke-miterlimit:2;"/></g><g id="sprotty_dependencies$project:MEMulator/FileNodeImpl$DIMM.sv_to_dependencies$project:MEMulator/FileNodeImpl$Chip.sv" class="sprotty-edge dependency" style="fill:none;stroke:rgb(48, 48, 48);stroke-linejoin:round;"><g><path d=" M455,140 L455,165 L782,165 L782,190"/><path d=" M455,140 L455,165 L782,165 L782,190" class="clickable" style="cursor:default;"/></g><path d="M 782,190 L 789,187.5 L 789,192.5 Z" transform="rotate(-90 782 190)" class="arrow" style="fill:rgb(48, 48, 48);stroke-linejoin:miter;stroke-miterlimit:2;"/></g><g id="sprotty_dependencies$project:MEMulator/FileNodeImpl$DIMM.sv_to_dependencies$project:MEMulator/FileNodeImpl$TimingFSM.sv" class="sprotty-edge dependency" style="fill:none;stroke:rgb(48, 48, 48);stroke-linejoin:round;"><g><path d=" M465,140 L465,155 L996,155 L996,190"/><path d=" M465,140 L465,155 L996,155 L996,190" class="clickable" style="cursor:default;"/></g><path d="M 996,190 L 1003,187.5 L 1003,192.5 Z" transform="rotate(-90 996 190)" class="arrow" style="fill:rgb(48, 48, 48);stroke-linejoin:miter;stroke-miterlimit:2;"/></g><g id="sprotty_dependencies$project:MEMulator/FileNodeImpl$DIMM.sv_to_dependencies$project:MEMulator/FileNodeImpl$tristate.v" class="sprotty-edge dependency" style="fill:none;stroke:rgb(48, 48, 48);stroke-linejoin:round;"><g><path d=" M425,140 L425,155 L277,155 L277,190"/><path d=" M425,140 L425,155 L277,155 L277,190" class="clickable" style="cursor:default;"/></g><path d="M 277,190 L 284,187.5 L 284,192.5 Z" transform="rotate(-90 277 190)" class="arrow" style="fill:rgb(48, 48, 48);stroke-linejoin:miter;stroke-miterlimit:2;"/></g><g id="sprotty_dependencies$project:MEMulator/FileNodeImpl$testbnch_DIMM.sv_to_dependencies$project:MEMulator/FileNodeImpl$DIMM.sv" class="sprotty-edge dependency" style="fill:none;stroke:rgb(48, 48, 48);stroke-linejoin:round;"><g><path d=" M1106,56 L1106,81 L460,81 L460,96"/><path d=" M1106,56 L1106,81 L460,81 L460,96" class="clickable" style="cursor:default;"/></g><path d="M 460,96 L 467,93.5 L 467,98.5 Z" transform="rotate(-90 460 96)" class="arrow" style="fill:rgb(48, 48, 48);stroke-linejoin:miter;stroke-miterlimit:2;"/></g><g id="sprotty_dependencies$project:MEMulator/FileNodeImpl$testbnch_DIMM.sv_to_dependencies$project:MEMulator/FileNodeImpl$TimingFSM.sv" class="sprotty-edge dependency" style="fill:none;stroke:rgb(48, 48, 48);stroke-linejoin:round;"><g><path d=" M1116,56 L1116,155 L1016,155 L1016,190"/><path d=" M1116,56 L1116,155 L1016,155 L1016,190" class="clickable" style="cursor:default;"/></g><path d="M 1016,190 L 1023,187.5 L 1023,192.5 Z" transform="rotate(-90 1016 190)" class="arrow" style="fill:rgb(48, 48, 48);stroke-linejoin:miter;stroke-miterlimit:2;"/></g><g id="sprotty_dependencies$project:MEMulator/FileNodeImpl$testbnch_MEMSync.sv_to_dependencies$project:MEMulator/FileNodeImpl$MEMSync.sv" class="sprotty-edge dependency" style="fill:none;stroke:rgb(48, 48, 48);stroke-linejoin:round;"><g><path d=" M100,234 L100,249 L420,249 L420,264"/><path d=" M100,234 L100,249 L420,249 L420,264" class="clickable" style="cursor:default;"/></g><path d="M 420,264 L 427,261.5 L 427,266.5 Z" transform="rotate(-90 420 264)" class="arrow" style="fill:rgb(48, 48, 48);stroke-linejoin:miter;stroke-miterlimit:2;"/></g><g id="sprotty_dependencies$project:MEMulator/FileNodeImpl$Chip.sv_to_dependencies$project:MEMulator/FileNodeImpl$BankGroup.sv" class="sprotty-edge dependency" style="fill:none;stroke:rgb(48, 48, 48);stroke-linejoin:round;"><g><path d=" M787,234 L787,264"/><path d=" M787,234 L787,264" class="clickable" style="cursor:default;"/></g><path d="M 787,264 L 794,261.5 L 794,266.5 Z" transform="rotate(-90 787 264)" class="arrow" style="fill:rgb(48, 48, 48);stroke-linejoin:miter;stroke-miterlimit:2;"/></g><g id="sprotty_dependencies$project:MEMulator/FileNodeImpl$testbnch_TimingFSM.sv_to_dependencies$project:MEMulator/FileNodeImpl$TimingFSM.sv" class="sprotty-edge dependency" style="fill:none;stroke:rgb(48, 48, 48);stroke-linejoin:round;"><g><path d=" M1006,140 L1006,190"/><path d=" M1006,140 L1006,190" class="clickable" style="cursor:default;"/></g><path d="M 1006,190 L 1013,187.5 L 1013,192.5 Z" transform="rotate(-90 1006 190)" class="arrow" style="fill:rgb(48, 48, 48);stroke-linejoin:miter;stroke-miterlimit:2;"/></g><g id="sprotty_dependencies$project:MEMulator/FileNodeImpl$testbnch_RefInterleaving.sv_to_dependencies$project:MEMulator/FileNodeImpl$DIMM.sv" class="sprotty-edge dependency" style="fill:none;stroke:rgb(48, 48, 48);stroke-linejoin:round;"><g><path d=" M440,56 L440,96"/><path d=" M440,56 L440,96" class="clickable" style="cursor:default;"/></g><path d="M 440,96 L 447,93.5 L 447,98.5 Z" transform="rotate(-90 440 96)" class="arrow" style="fill:rgb(48, 48, 48);stroke-linejoin:miter;stroke-miterlimit:2;"/></g><g id="sprotty_dependencies$project:MEMulator/FileNodeImpl$Bank.sv_to_dependencies$project:MEMulator/FileNodeImpl$bank_array.sv" class="sprotty-edge dependency" style="fill:none;stroke:rgb(48, 48, 48);stroke-linejoin:round;"><g><path d=" M612,382 L612,402"/><path d=" M612,382 L612,402" class="clickable" style="cursor:default;"/></g><path d="M 612,402 L 619,399.5 L 619,404.5 Z" transform="rotate(-90 612 402)" class="arrow" style="fill:rgb(48, 48, 48);stroke-linejoin:miter;stroke-miterlimit:2;"/></g><g id="sprotty_dependencies$project:MEMulator/FileNodeImpl$testbnch_Chip.sv_to_dependencies$project:MEMulator/FileNodeImpl$Chip.sv" class="sprotty-edge dependency" style="fill:none;stroke:rgb(48, 48, 48);stroke-linejoin:round;"><g><path d=" M792,140 L792,190"/><path d=" M792,140 L792,190" class="clickable" style="cursor:default;"/></g><path d="M 792,190 L 799,187.5 L 799,192.5 Z" transform="rotate(-90 792 190)" class="arrow" style="fill:rgb(48, 48, 48);stroke-linejoin:miter;stroke-miterlimit:2;"/></g><g id="sprotty_dependencies$project:MEMulator/FileNodeImpl$testbnch_MEMSyncTop.sv_to_dependencies$project:MEMulator/FileNodeImpl$MEMSyncTop.sv" class="sprotty-edge dependency" style="fill:none;stroke:rgb(48, 48, 48);stroke-linejoin:round;"><g><path d=" M257,140 L257,165 L425,165 L425,190"/><path d=" M257,140 L257,165 L425,165 L425,190" class="clickable" style="cursor:default;"/></g><path d="M 425,190 L 432,187.5 L 432,192.5 Z" transform="rotate(-90 425 190)" class="arrow" style="fill:rgb(48, 48, 48);stroke-linejoin:miter;stroke-miterlimit:2;"/></g><g id="sprotty_dependencies$project:MEMulator/FileNodeImpl$testbnch_Bank.sv_to_dependencies$project:MEMulator/FileNodeImpl$Bank.sv" class="sprotty-edge dependency" style="fill:none;stroke:rgb(48, 48, 48);stroke-linejoin:round;"><g><path d=" M607,308 L607,338"/><path d=" M607,308 L607,338" class="clickable" style="cursor:default;"/></g><path d="M 607,338 L 614,335.5 L 614,340.5 Z" transform="rotate(-90 607 338)" class="arrow" style="fill:rgb(48, 48, 48);stroke-linejoin:miter;stroke-miterlimit:2;"/></g></g></svg>