<svg xmlns="http://www.w3.org/2000/svg" id="sprotty_root" class="sprotty-graph sprotty-state-machine statemachine" style="font-family:&quot;Noto Sans&quot;, Helvetica, Arial, sans-serif;-webkit-locale:&quot;en&quot;;perspective-origin:0px 0px;transform-origin:0px 0px;" version="1.1" viewBox="10 10 889.6953125 778" width="889.6953125" height="778"><g transform="scale(1) translate(0,0)"><g id="sprotty_fsm$state" class="statemachine" transform="translate(15, 15)"><g class="sprotty-block" style="fill:rgb(255, 255, 255);stroke:rgb(48, 48, 48);stroke-dasharray:0px;"><rect x="0" y="0" rx="1" ry="1" width="879.6953125" height="768"/><text x="439.84765625" y="12" class="sprotty-block-name" style="cursor:pointer;font-weight:700;perspective-origin:439.844px 0px;fill:rgb(48, 48, 48);stroke:rgba(0, 0, 0, 0);dominant-baseline:middle;text-anchor:middle;">state</text><line x1="0" y1="20" x2="879.6953125" y2="20"/></g><g id="sprotty_fsm$state/state$WritingAPR" class="state" transform="translate(389.5234374999999, 276)"><ellipse cx="47.9375" cy="20" rx="47.9375" ry="20" class="sprotty-node clickable" style="fill:rgb(255, 255, 255);stroke:rgb(48, 48, 48);"/><text class="clickable sprotty-label state" id="sprotty_fsm$state/state$WritingAPR/label" transform="translate(6, 8) translate(41.9375, 19)" style="cursor:default;perspective-origin:0px 0px;fill:rgb(48, 48, 48);text-anchor:middle;">WritingAPR</text></g><g id="sprotty_fsm$state/state$Refreshing" class="state" transform="translate(591.8203125, 526)"><ellipse cx="45.671875" cy="20" rx="45.671875" ry="20" class="sprotty-node clickable" style="fill:rgb(255, 255, 255);stroke:rgb(48, 48, 48);"/><text class="clickable sprotty-label state" id="sprotty_fsm$state/state$Refreshing/label" transform="translate(6, 8) translate(39.671875, 19)" style="cursor:default;perspective-origin:0px 0px;fill:rgb(48, 48, 48);text-anchor:middle;">Refreshing</text></g><g id="sprotty_fsm$state/state$Config" class="state" transform="translate(343.31882440476187, 716)"><ellipse cx="30.3125" cy="20" rx="30.3125" ry="20" class="sprotty-node clickable" style="fill:rgb(255, 255, 255);stroke:rgb(48, 48, 48);"/><text class="clickable sprotty-label state" id="sprotty_fsm$state/state$Config/label" transform="translate(6, 8) translate(24.3125, 19)" style="cursor:default;perspective-origin:0px 0px;fill:rgb(48, 48, 48);text-anchor:middle;">Config</text></g><g id="sprotty_fsm$state/state$ReadingAPR" class="state" transform="translate(543.92578125, 276)"><ellipse cx="51.359375" cy="20" rx="51.359375" ry="20" class="sprotty-node clickable" style="fill:rgb(255, 255, 255);stroke:rgb(48, 48, 48);"/><text class="clickable sprotty-label state" id="sprotty_fsm$state/state$ReadingAPR/label" transform="translate(6, 8) translate(45.359375, 19)" style="cursor:default;perspective-origin:0px 0px;fill:rgb(48, 48, 48);text-anchor:middle;">ReadingAPR</text></g><g id="sprotty_fsm$state/state$DeepPD" class="state" transform="translate(342.5, 526)"><ellipse cx="35.8828125" cy="20" rx="35.8828125" ry="20" class="sprotty-node clickable" style="fill:rgb(255, 255, 255);stroke:rgb(48, 48, 48);"/><text class="clickable sprotty-label state" id="sprotty_fsm$state/state$DeepPD/label" transform="translate(6, 8) translate(29.875, 19)" style="cursor:default;perspective-origin:0px 0px;fill:rgb(48, 48, 48);text-anchor:middle;">DeepPD</text></g><g id="sprotty_fsm$state/state$Activating" class="state" transform="translate(89.18229166666664, 526)"><ellipse cx="43.0625" cy="20" rx="43.0625" ry="20" class="sprotty-node clickable" style="fill:rgb(255, 255, 255);stroke:rgb(48, 48, 48);"/><text class="clickable sprotty-label state" id="sprotty_fsm$state/state$Activating/label" transform="translate(6, 8) translate(37.0625, 19)" style="cursor:default;perspective-origin:0px 0px;fill:rgb(48, 48, 48);text-anchor:middle;">Activating</text></g><g id="sprotty_fsm$state/state$IdlePD" class="state" transform="translate(806.5390625, 526)"><ellipse cx="30.578125" cy="20" rx="30.578125" ry="20" class="sprotty-node clickable" style="fill:rgb(255, 255, 255);stroke:rgb(48, 48, 48);"/><text class="clickable sprotty-label state" id="sprotty_fsm$state/state$IdlePD/label" transform="translate(6, 8) translate(24.578125, 19)" style="cursor:default;perspective-origin:0px 0px;fill:rgb(48, 48, 48);text-anchor:middle;">IdlePD</text></g><g id="sprotty_fsm$state/state$BankActive" class="state" transform="translate(152.10379464285708, 196)"><ellipse cx="47.7734375" cy="20" rx="47.7734375" ry="20" class="sprotty-node clickable" style="fill:rgb(255, 255, 255);stroke:rgb(48, 48, 48);"/><text class="clickable sprotty-label state" id="sprotty_fsm$state/state$BankActive/label" transform="translate(6, 8) translate(41.703125, 19)" style="cursor:default;perspective-origin:0.0625px 0px;fill:rgb(48, 48, 48);text-anchor:middle;">BankActive</text></g><g id="sprotty_fsm$state/state$Precharging" class="state" transform="translate(470.91406249999994, 346)"><ellipse cx="51.0625" cy="20" rx="51.0625" ry="20" class="sprotty-node clickable" style="fill:rgb(255, 255, 255);stroke:rgb(48, 48, 48);"/><text class="clickable sprotty-label state" id="sprotty_fsm$state/state$Precharging/label" transform="translate(6, 8) translate(45.0625, 19)" style="cursor:default;perspective-origin:0px 0px;fill:rgb(48, 48, 48);text-anchor:middle;">Precharging</text></g><g id="sprotty_fsm$state/state$IdleMRW" class="state" transform="translate(207.80729166666663, 526)"><ellipse cx="38.6875" cy="20" rx="38.6875" ry="20" class="sprotty-node clickable" style="fill:rgb(255, 255, 255);stroke:rgb(48, 48, 48);"/><text class="clickable sprotty-label state" id="sprotty_fsm$state/state$IdleMRW/label" transform="translate(6, 8) translate(32.6875, 19)" style="cursor:default;perspective-origin:0px 0px;fill:rgb(48, 48, 48);text-anchor:middle;">IdleMRW</text></g><g id="sprotty_fsm$state/state$Reading" class="state" transform="translate(438.57031249999994, 126)"><ellipse cx="36.375" cy="20" rx="36.375" ry="20" class="sprotty-node clickable" style="fill:rgb(255, 255, 255);stroke:rgb(48, 48, 48);"/><text class="clickable sprotty-label state" id="sprotty_fsm$state/state$Reading/label" transform="translate(6, 8) translate(30.375, 19)" style="cursor:default;perspective-origin:0px 0px;fill:rgb(48, 48, 48);text-anchor:middle;">Reading</text></g><g id="sprotty_fsm$state/state$IdleMRR" class="state" transform="translate(708.1640625, 526)"><ellipse cx="36.6875" cy="20" rx="36.6875" ry="20" class="sprotty-node clickable" style="fill:rgb(255, 255, 255);stroke:rgb(48, 48, 48);"/><text class="clickable sprotty-label state" id="sprotty_fsm$state/state$IdleMRR/label" transform="translate(6, 8) translate(30.6875, 19)" style="cursor:default;perspective-origin:0px 0px;fill:rgb(48, 48, 48);text-anchor:middle;">IdleMRR</text></g><g id="sprotty_fsm$state/state$ResettingMRR" class="state" transform="translate(203.06882440476187, 716)"><ellipse cx="57.625" cy="20" rx="57.625" ry="20" class="sprotty-node clickable" style="fill:rgb(255, 255, 255);stroke:rgb(48, 48, 48);"/><text class="clickable sprotty-label state" id="sprotty_fsm$state/state$ResettingMRR/label" transform="translate(6, 8) translate(51.625, 19)" style="cursor:default;perspective-origin:0px 0px;fill:rgb(48, 48, 48);text-anchor:middle;">ResettingMRR</text></g><g id="sprotty_fsm$state/state$Idle" class="state" transform="translate(446.97656249999994, 406)"><ellipse cx="75" cy="20" rx="75" ry="20" class="sprotty-node clickable" style="fill:rgb(255, 255, 255);stroke:rgb(48, 48, 48);"/><text class="clickable sprotty-label state" id="sprotty_fsm$state/state$Idle/label" transform="translate(60.90625, 8) translate(14.03125, 19)" style="cursor:default;perspective-origin:0.0625px 0px;fill:rgb(48, 48, 48);text-anchor:middle;">Idle</text></g><g id="sprotty_fsm$state/state$Writing" class="state" transform="translate(437.07031249999994, 36)"><ellipse cx="40" cy="20" rx="40" ry="20" class="sprotty-node clickable" style="fill:rgb(255, 255, 255);stroke:rgb(48, 48, 48);"/><text class="clickable sprotty-label state" id="sprotty_fsm$state/state$Writing/label" transform="translate(13.0625, 8) translate(26.9375, 19)" style="cursor:default;perspective-origin:0px 0px;fill:rgb(48, 48, 48);text-anchor:middle;">Writing</text></g><g id="sprotty_fsm$state/state$ActivePD" class="state" transform="translate(12, 586)"><ellipse cx="39.1875" cy="20" rx="39.1875" ry="20" class="sprotty-node clickable" style="fill:rgb(255, 255, 255);stroke:rgb(48, 48, 48);"/><text class="clickable sprotty-label state" id="sprotty_fsm$state/state$ActivePD/label" transform="translate(6, 8) translate(33.1875, 19)" style="cursor:default;perspective-origin:0px 0px;fill:rgb(48, 48, 48);text-anchor:middle;">ActivePD</text></g><g id="sprotty_fsm$state/state$PowerOn" class="state" transform="translate(337.9765625, 586)"><ellipse cx="40.40625" cy="20" rx="40.40625" ry="20" class="sprotty-node clickable" style="fill:rgb(255, 255, 255);stroke:rgb(48, 48, 48);"/><text class="clickable sprotty-label state" id="sprotty_fsm$state/state$PowerOn/label" transform="translate(6, 8) translate(34.40625, 19)" style="cursor:default;perspective-origin:0px 0px;fill:rgb(48, 48, 48);text-anchor:middle;">PowerOn</text></g><g id="sprotty_fsm$state/state$Resetting" class="state" transform="translate(336.9140625, 646)"><ellipse cx="40.96875" cy="20" rx="40.96875" ry="20" class="sprotty-node clickable" style="fill:rgb(255, 255, 255);stroke:rgb(48, 48, 48);"/><text class="clickable sprotty-label state" id="sprotty_fsm$state/state$Resetting/label" transform="translate(6, 8) translate(34.96875, 19)" style="cursor:default;perspective-origin:0px 0px;fill:rgb(48, 48, 48);text-anchor:middle;">Resetting</text></g><g id="sprotty_fsm$state/state$SelfRefreshing" class="state" transform="translate(447.28906249999994, 526)"><ellipse cx="59.765625" cy="20" rx="59.765625" ry="20" class="sprotty-node clickable" style="fill:rgb(255, 255, 255);stroke:rgb(48, 48, 48);"/><text class="clickable sprotty-label state" id="sprotty_fsm$state/state$SelfRefreshing/label" transform="translate(6, 8) translate(53.765625, 19)" style="cursor:default;perspective-origin:0px 0px;fill:rgb(48, 48, 48);text-anchor:middle;">SelfRefreshing</text></g><g id="sprotty_fsm$state/state$ResettingPD" class="state" transform="translate(428.94382440476187, 716)"><ellipse cx="51.5234375" cy="20" rx="51.5234375" ry="20" class="sprotty-node clickable" style="fill:rgb(255, 255, 255);stroke:rgb(48, 48, 48);"/><text class="clickable sprotty-label state" id="sprotty_fsm$state/state$ResettingPD/label" transform="translate(6, 8) translate(45.515625, 19)" style="cursor:default;perspective-origin:0px 0px;fill:rgb(48, 48, 48);text-anchor:middle;">ResettingPD</text></g><g id="sprotty_fsm$state/state$Idle_to_fsm$state/state$Activating" class="sprotty-edge transition" style="fill:none;stroke:rgb(48, 48, 48);stroke-linejoin:round;"><g><path d=" M456.97656249999994,446 C456.97656249999994,446 177.63671874999997,486 146.59895833333331,526"/><path d=" M456.97656249999994,446 C456.97656249999994,446 177.63671874999997,486 146.59895833333331,526" class="clickable"/></g><path d="M 146.59895833333331,526 L 153.59895833333331,523.5 L 153.59895833333331,528.5 Z" transform="rotate(-52.190539453229775 146.59895833333331 526)" class="arrow" style="fill:rgb(48, 48, 48);stroke-linejoin:miter;stroke-miterlimit:2;"/></g><g id="sprotty_fsm$state/state$Idle_to_fsm$state/state$Refreshing" class="sprotty-edge transition" style="fill:none;stroke:rgb(48, 48, 48);stroke-linejoin:round;"><g><path d=" M546.9765625,446 C546.9765625,446 642.1421874999999,486 652.7161458333334,526"/><path d=" M546.9765625,446 C546.9765625,446 642.1421874999999,486 652.7161458333334,526" class="clickable"/></g><path d="M 652.7161458333334,526 L 659.7161458333334,523.5 L 659.7161458333334,528.5 Z" transform="rotate(-104.8073671458115 652.7161458333334 526)" class="arrow" style="fill:rgb(48, 48, 48);stroke-linejoin:miter;stroke-miterlimit:2;"/></g><g id="sprotty_fsm$state/state$Idle_to_fsm$state/state$SelfRefreshing" class="sprotty-edge transition" style="fill:none;stroke:rgb(48, 48, 48);stroke-linejoin:round;"><g><path d=" M526.9765625,446 C526.9765625,446 526.9765625,486 526.9765625,526"/><path d=" M526.9765625,446 C526.9765625,446 526.9765625,486 526.9765625,526" class="clickable"/></g><path d="M 526.9765625,526 L 533.9765625,523.5 L 533.9765625,528.5 Z" transform="rotate(-90 526.9765625 526)" class="arrow" style="fill:rgb(48, 48, 48);stroke-linejoin:miter;stroke-miterlimit:2;"/></g><g id="sprotty_fsm$state/state$Idle_to_fsm$state/state$Resetting" class="sprotty-edge transition" style="fill:none;stroke:rgb(48, 48, 48);stroke-linejoin:round;"><g><path d=" M506.97656249999994,446 C428.78906249999994,486 428.7890625,506 428.7890625,520.1666666666667 C428.78906249999994,534.3333333333334 428.78906249999994,542.6666666666666 428.78906249999994,550.9999999999999 C428.78906249999994,559.3333333333333 428.7890625,567.6666666666666 428.7890625,580.1666666666667 C428.78906249999994,592.6666666666667 428.7890625,609.3333333333335 428.7890625,620.1666666666667 C428.7890625,631 428.78906249999994,636 398.3671875,646"/><path d=" M506.97656249999994,446 C428.78906249999994,486 428.7890625,506 428.7890625,520.1666666666667 C428.78906249999994,534.3333333333334 428.78906249999994,542.6666666666666 428.78906249999994,550.9999999999999 C428.78906249999994,559.3333333333333 428.7890625,567.6666666666666 428.7890625,580.1666666666667 C428.78906249999994,592.6666666666667 428.7890625,609.3333333333335 428.7890625,620.1666666666667 C428.7890625,631 428.78906249999994,636 398.3671875,646" class="clickable"/></g><path d="M 398.3671875,646 L 405.3671875,643.5 L 405.3671875,648.5 Z" transform="rotate(-18.196254624921217 398.3671875 646)" class="arrow" style="fill:rgb(48, 48, 48);stroke-linejoin:miter;stroke-miterlimit:2;"/></g><g id="sprotty_fsm$state/state$Idle_to_fsm$state/state$IdlePD" class="sprotty-edge transition" style="fill:none;stroke:rgb(48, 48, 48);stroke-linejoin:round;"><g><path d=" M586.9765625,446 C586.9765625,446 821.2765625,486 847.3098958333334,526"/><path d=" M586.9765625,446 C586.9765625,446 821.2765625,486 847.3098958333334,526" class="clickable"/></g><path d="M 847.3098958333334,526 L 854.3098958333334,523.5 L 854.3098958333334,528.5 Z" transform="rotate(-123.05741996581263 847.3098958333334 526)" class="arrow" style="fill:rgb(48, 48, 48);stroke-linejoin:miter;stroke-miterlimit:2;"/></g><g id="sprotty_fsm$state/state$Idle_to_fsm$state/state$DeepPD" class="sprotty-edge transition" style="fill:none;stroke:rgb(48, 48, 48);stroke-linejoin:round;"><g><path d=" M496.97656249999994,446 C496.97656249999994,446 390.24218749999994,486 378.3828125,526"/><path d=" M496.97656249999994,446 C496.97656249999994,446 390.24218749999994,486 378.3828125,526" class="clickable"/></g><path d="M 378.3828125,526 L 385.3828125,523.5 L 385.3828125,528.5 Z" transform="rotate(-73.48573270902268 378.3828125 526)" class="arrow" style="fill:rgb(48, 48, 48);stroke-linejoin:miter;stroke-miterlimit:2;"/></g><g id="sprotty_fsm$state/state$Idle_to_fsm$state/state$IdleMRW" class="sprotty-edge transition" style="fill:none;stroke:rgb(48, 48, 48);stroke-linejoin:round;"><g><path d=" M476.97656249999994,446 C476.97656249999994,446 281.14921874999993,486 259.39062499999994,526"/><path d=" M476.97656249999994,446 C476.97656249999994,446 281.14921874999993,486 259.39062499999994,526" class="clickable"/></g><path d="M 259.39062499999994,526 L 266.39062499999994,523.5 L 266.39062499999994,528.5 Z" transform="rotate(-61.4553636161427 259.39062499999994 526)" class="arrow" style="fill:rgb(48, 48, 48);stroke-linejoin:miter;stroke-miterlimit:2;"/></g><g id="sprotty_fsm$state/state$Idle_to_fsm$state/state$IdleMRR" class="sprotty-edge transition" style="fill:none;stroke:rgb(48, 48, 48);stroke-linejoin:round;"><g><path d=" M566.9765625,446 C566.9765625,446 738.0703125,486 757.0807291666666,526"/><path d=" M566.9765625,446 C566.9765625,446 738.0703125,486 757.0807291666666,526" class="clickable"/></g><path d="M 757.0807291666666,526 L 764.0807291666666,523.5 L 764.0807291666666,528.5 Z" transform="rotate(-115.4198908942149 757.0807291666666 526)" class="arrow" style="fill:rgb(48, 48, 48);stroke-linejoin:miter;stroke-miterlimit:2;"/></g><g id="sprotty_fsm$state/state$Activating_to_fsm$state/state$BankActive" class="sprotty-edge transition" style="fill:none;stroke:rgb(48, 48, 48);stroke-linejoin:round;"><g><path d=" M117.89062499999997,526 C117.89062499999999,486 117.890625,463.49999999999994 117.890625,444.74999999999994 C117.890625,425.99999999999994 117.890625,411 117.890625,392.6666666666667 C117.890625,374.33333333333337 117.890625,352.6666666666667 117.890625,337.25 C117.890625,321.8333333333333 117.890625,312.66666666666663 117.890625,303.49999999999994 C117.890625,294.3333333333333 117.890625,285.1666666666667 117.890625,275.58333333333337 C117.890625,266 117.890625,256 193.0524553571428,236"/><path d=" M117.89062499999997,526 C117.89062499999999,486 117.890625,463.49999999999994 117.890625,444.74999999999994 C117.890625,425.99999999999994 117.890625,411 117.890625,392.6666666666667 C117.890625,374.33333333333337 117.890625,352.6666666666667 117.890625,337.25 C117.890625,321.8333333333333 117.890625,312.66666666666663 117.890625,303.49999999999994 C117.890625,294.3333333333333 117.890625,285.1666666666667 117.890625,275.58333333333337 C117.890625,266 117.890625,256 193.0524553571428,236" class="clickable"/></g><path d="M 193.0524553571428,236 L 200.0524553571428,233.5 L 200.0524553571428,238.5 Z" transform="rotate(165.0993000149556 193.0524553571428 236)" class="arrow" style="fill:rgb(48, 48, 48);stroke-linejoin:miter;stroke-miterlimit:2;"/></g><g id="sprotty_fsm$state/state$Activating_to_fsm$state/state$ActivePD" class="sprotty-edge transition" style="fill:none;stroke:rgb(48, 48, 48);stroke-linejoin:round;"><g><path d=" M132.24479166666663,566 C132.24479166666663,566 126.09843749999997,576 70.78125,586"/><path d=" M132.24479166666663,566 C132.24479166666663,566 126.09843749999997,576 70.78125,586" class="clickable"/></g><path d="M 70.78125,586 L 77.78125,583.5 L 77.78125,588.5 Z" transform="rotate(-10.247014121389338 70.78125 586)" class="arrow" style="fill:rgb(48, 48, 48);stroke-linejoin:miter;stroke-miterlimit:2;"/></g><g id="sprotty_fsm$state/state$ActivePD_to_fsm$state/state$BankActive" class="sprotty-edge transition" style="fill:none;stroke:rgb(48, 48, 48);stroke-linejoin:round;"><g><path d=" M51.1875,586 C66.890625,576 66.890625,571 66.890625,555.1666666666666 C66.890625,539.3333333333333 66.890625,512.6666666666666 66.890625,491.8333333333333 C66.890625,471 66.890625,456 66.890625,441 C66.890625,426 66.890625,411 66.890625,392.66666666666663 C66.890625,374.3333333333333 66.890625,352.66666666666663 66.890625,337.25 C66.890625,321.8333333333333 66.890625,312.66666666666663 66.890625,303.5 C66.890625,294.3333333333333 66.890625,285.16666666666663 66.890625,275.5833333333333 C66.890625,266 66.890625,256 179.40290178571422,236"/><path d=" M51.1875,586 C66.890625,576 66.890625,571 66.890625,555.1666666666666 C66.890625,539.3333333333333 66.890625,512.6666666666666 66.890625,491.8333333333333 C66.890625,471 66.890625,456 66.890625,441 C66.890625,426 66.890625,411 66.890625,392.66666666666663 C66.890625,374.3333333333333 66.890625,352.66666666666663 66.890625,337.25 C66.890625,321.8333333333333 66.890625,312.66666666666663 66.890625,303.5 C66.890625,294.3333333333333 66.890625,285.16666666666663 66.890625,275.5833333333333 C66.890625,266 66.890625,256 179.40290178571422,236" class="clickable"/></g><path d="M 179.40290178571422,236 L 186.40290178571422,233.5 L 186.40290178571422,238.5 Z" transform="rotate(169.92047940237606 179.40290178571422 236)" class="arrow" style="fill:rgb(48, 48, 48);stroke-linejoin:miter;stroke-miterlimit:2;"/></g><g id="sprotty_fsm$state/state$BankActive_to_fsm$state/state$Writing" class="sprotty-edge transition" style="fill:none;stroke:rgb(48, 48, 48);stroke-linejoin:round;"><g><path d=" M190.32254464285708,196 C206.26785714285708,181 206.26785714285708,173.5 206.26785714285708,166.41666666666666 C206.26785714285708,159.33333333333331 206.26785714285708,152.66666666666666 206.26785714285708,146 C206.26785714285708,139.33333333333331 206.26785714285708,132.66666666666666 206.26785714285708,123.08333333333333 C206.26785714285708,113.5 206.26785714285708,101 457.07031249999994,76"/><path d=" M190.32254464285708,196 C206.26785714285708,181 206.26785714285708,173.5 206.26785714285708,166.41666666666666 C206.26785714285708,159.33333333333331 206.26785714285708,152.66666666666666 206.26785714285708,146 C206.26785714285708,139.33333333333331 206.26785714285708,132.66666666666666 206.26785714285708,123.08333333333333 C206.26785714285708,113.5 206.26785714285708,101 457.07031249999994,76" class="clickable"/></g><path d="M 457.07031249999994,76 L 464.07031249999994,73.5 L 464.07031249999994,78.5 Z" transform="rotate(174.30755801054553 457.07031249999994 76)" class="arrow" style="fill:rgb(48, 48, 48);stroke-linejoin:miter;stroke-miterlimit:2;"/></g><g id="sprotty_fsm$state/state$BankActive_to_fsm$state/state$WritingAPR" class="sprotty-edge transition" style="fill:none;stroke:rgb(48, 48, 48);stroke-linejoin:round;"><g><path d=" M220.35156249999994,236 C220.35156249999994,236 394.1781249999999,256 413.4921874999999,276"/><path d=" M220.35156249999994,236 C220.35156249999994,236 394.1781249999999,256 413.4921874999999,276" class="clickable"/></g><path d="M 413.4921874999999,276 L 420.4921874999999,273.5 L 420.4921874999999,278.5 Z" transform="rotate(-134.000425446973 413.4921874999999 276)" class="arrow" style="fill:rgb(48, 48, 48);stroke-linejoin:miter;stroke-miterlimit:2;"/></g><g id="sprotty_fsm$state/state$BankActive_to_fsm$state/state$Reading" class="sprotty-edge transition" style="fill:none;stroke:rgb(48, 48, 48);stroke-linejoin:round;"><g><path d=" M209.43191964285708,196 C233.55825892857135,181 450.69531249999994,166 450.69531249999994,166"/><path d=" M209.43191964285708,196 C233.55825892857135,181 450.69531249999994,166 450.69531249999994,166" class="clickable"/></g><path d="M 450.69531249999994,166 L 457.69531249999994,163.5 L 457.69531249999994,168.5 Z" transform="rotate(176.0482402346603 450.69531249999994 166)" class="arrow" style="fill:rgb(48, 48, 48);stroke-linejoin:miter;stroke-miterlimit:2;"/></g><g id="sprotty_fsm$state/state$BankActive_to_fsm$state/state$ReadingAPR" class="sprotty-edge transition" style="fill:none;stroke:rgb(48, 48, 48);stroke-linejoin:round;"><g><path d=" M234.0011160714285,236 C234.0011160714285,236 536.0450334821428,256 569.60546875,276"/><path d=" M234.0011160714285,236 C234.0011160714285,236 536.0450334821428,256 569.60546875,276" class="clickable"/></g><path d="M 569.60546875,276 L 576.60546875,273.5 L 576.60546875,278.5 Z" transform="rotate(-149.20760193052482 569.60546875 276)" class="arrow" style="fill:rgb(48, 48, 48);stroke-linejoin:miter;stroke-miterlimit:2;"/></g><g id="sprotty_fsm$state/state$BankActive_to_fsm$state/state$Precharging" class="sprotty-edge transition" style="fill:none;stroke:rgb(48, 48, 48);stroke-linejoin:round;"><g><path d=" M206.70200892857136,236 C369.00223214285705,256 369.00223214285705,266 369.00223214285705,274.3333333333333 C369.00223214285705,282.66666666666663 369.00223214285705,289.3333333333333 369.00223214285705,296 C369.00223214285705,302.66666666666663 369.00223214285705,309.3333333333333 369.00223214285705,316.41666666666663 C369.00223214285705,323.5 369.00223214285705,331 487.93489583333326,346"/><path d=" M206.70200892857136,236 C369.00223214285705,256 369.00223214285705,266 369.00223214285705,274.3333333333333 C369.00223214285705,282.66666666666663 369.00223214285705,289.3333333333333 369.00223214285705,296 C369.00223214285705,302.66666666666663 369.00223214285705,309.3333333333333 369.00223214285705,316.41666666666663 C369.00223214285705,323.5 369.00223214285705,331 487.93489583333326,346" class="clickable"/></g><path d="M 487.93489583333326,346 L 494.93489583333326,343.5 L 494.93489583333326,348.5 Z" transform="rotate(-172.81170761470423 487.93489583333326 346)" class="arrow" style="fill:rgb(48, 48, 48);stroke-linejoin:miter;stroke-miterlimit:2;"/></g><g id="sprotty_fsm$state/state$BankActive_to_fsm$state/state$ActivePD" class="sprotty-edge transition" style="fill:none;stroke:rgb(48, 48, 48);stroke-linejoin:round;"><g><path d=" M165.75334821428567,236 C15.890625,256 15.890625,266 15.890625,275.5833333333333 C15.890625,285.16666666666663 15.890625,294.3333333333333 15.890625,303.5 C15.890625,312.66666666666663 15.890625,321.8333333333333 15.890625,337.25 C15.890625,352.66666666666663 15.890625,374.3333333333333 15.890625,392.66666666666663 C15.890625,411 15.890625,426 15.890625,441 C15.890625,456 15.890625,471 15.890625,491.8333333333333 C15.890625,512.6666666666666 15.890625,539.3333333333333 15.890625,555.1666666666666 C15.890625,571 15.890625,576 31.59375,586"/><path d=" M165.75334821428567,236 C15.890625,256 15.890625,266 15.890625,275.5833333333333 C15.890625,285.16666666666663 15.890625,294.3333333333333 15.890625,303.5 C15.890625,312.66666666666663 15.890625,321.8333333333333 15.890625,337.25 C15.890625,352.66666666666663 15.890625,374.3333333333333 15.890625,392.66666666666663 C15.890625,411 15.890625,426 15.890625,441 C15.890625,456 15.890625,471 15.890625,491.8333333333333 C15.890625,512.6666666666666 15.890625,539.3333333333333 15.890625,555.1666666666666 C15.890625,571 15.890625,576 31.59375,586" class="clickable"/></g><path d="M 31.59375,586 L 38.59375,583.5 L 38.59375,588.5 Z" transform="rotate(-147.51036684093953 31.59375 586)" class="arrow" style="fill:rgb(48, 48, 48);stroke-linejoin:miter;stroke-miterlimit:2;"/></g><g id="sprotty_fsm$state/state$Config_to_fsm$state/state$Resetting" class="sprotty-edge transition" style="fill:none;stroke:rgb(48, 48, 48);stroke-linejoin:round;"><g><path d=" M383.73549107142856,716 C383.73549107142856,701 383.73549107142856,686 383.73549107142856,686"/><path d=" M383.73549107142856,716 C383.73549107142856,701 383.73549107142856,686 383.73549107142856,686" class="clickable"/></g><path d="M 383.73549107142856,686 L 390.73549107142856,683.5 L 390.73549107142856,688.5 Z" transform="rotate(90 383.73549107142856 686)" class="arrow" style="fill:rgb(48, 48, 48);stroke-linejoin:miter;stroke-miterlimit:2;"/></g><g id="sprotty_fsm$state/state$DeepPD_to_fsm$state/state$PowerOn" class="sprotty-edge transition" style="fill:none;stroke:rgb(48, 48, 48);stroke-linejoin:round;"><g><path d=" M378.3828125,566 C378.3828125,566 378.3828125,576 378.3828125,586"/><path d=" M378.3828125,566 C378.3828125,566 378.3828125,576 378.3828125,586" class="clickable"/></g><path d="M 378.3828125,586 L 385.3828125,583.5 L 385.3828125,588.5 Z" transform="rotate(-90 378.3828125 586)" class="arrow" style="fill:rgb(48, 48, 48);stroke-linejoin:miter;stroke-miterlimit:2;"/></g><g id="sprotty_fsm$state/state$IdleMRR_to_fsm$state/state$Idle" class="sprotty-edge transition" style="fill:none;stroke:rgb(48, 48, 48);stroke-linejoin:round;"><g><path d=" M732.6223958333334,526 C715.0578125,486 556.9765625,446 556.9765625,446"/><path d=" M732.6223958333334,526 C715.0578125,486 556.9765625,446 556.9765625,446" class="clickable"/></g><path d="M 556.9765625,446 L 563.9765625,443.5 L 563.9765625,448.5 Z" transform="rotate(14.199759592529922 556.9765625 446)" class="arrow" style="fill:rgb(48, 48, 48);stroke-linejoin:miter;stroke-miterlimit:2;"/></g><g id="sprotty_fsm$state/state$IdleMRW_to_fsm$state/state$Idle" class="sprotty-edge transition" style="fill:none;stroke:rgb(48, 48, 48);stroke-linejoin:round;"><g><path d=" M233.5989583333333,526 C256.93671874999995,486 466.97656249999994,446 466.97656249999994,446"/><path d=" M233.5989583333333,526 C256.93671874999995,486 466.97656249999994,446 466.97656249999994,446" class="clickable"/></g><path d="M 466.97656249999994,446 L 473.97656249999994,443.5 L 473.97656249999994,448.5 Z" transform="rotate(169.21769990996 466.97656249999994 446)" class="arrow" style="fill:rgb(48, 48, 48);stroke-linejoin:miter;stroke-miterlimit:2;"/></g><g id="sprotty_fsm$state/state$IdlePD_to_fsm$state/state$Idle" class="sprotty-edge transition" style="fill:none;stroke:rgb(48, 48, 48);stroke-linejoin:round;"><g><path d=" M826.9244791666666,526 C801.9296874999998,486 576.9765625,446 576.9765625,446"/><path d=" M826.9244791666666,526 C801.9296874999998,486 576.9765625,446 576.9765625,446" class="clickable"/></g><path d="M 576.9765625,446 L 583.9765625,443.5 L 583.9765625,448.5 Z" transform="rotate(10.082655455927256 576.9765625 446)" class="arrow" style="fill:rgb(48, 48, 48);stroke-linejoin:miter;stroke-miterlimit:2;"/></g><g id="sprotty_fsm$state/state$PowerOn_to_fsm$state/state$Resetting" class="sprotty-edge transition" style="fill:none;stroke:rgb(48, 48, 48);stroke-linejoin:round;"><g><path d=" M378.3828125,626 C378.3828125,626 378.33281249999993,636 377.8828125,646"/><path d=" M378.3828125,626 C378.3828125,626 378.33281249999993,636 377.8828125,646" class="clickable"/></g><path d="M 377.8828125,646 L 384.8828125,643.5 L 384.8828125,648.5 Z" transform="rotate(-87.42342816973155 377.8828125 646)" class="arrow" style="fill:rgb(48, 48, 48);stroke-linejoin:miter;stroke-miterlimit:2;"/></g><g id="sprotty_fsm$state/state$Precharging_to_fsm$state/state$Idle" class="sprotty-edge transition" style="fill:none;stroke:rgb(48, 48, 48);stroke-linejoin:round;"><g><path d=" M521.9765625,386 C521.9765625,386 521.9765625,396 521.9765625,406"/><path d=" M521.9765625,386 C521.9765625,386 521.9765625,396 521.9765625,406" class="clickable"/></g><path d="M 521.9765625,406 L 528.9765625,403.5 L 528.9765625,408.5 Z" transform="rotate(-90 521.9765625 406)" class="arrow" style="fill:rgb(48, 48, 48);stroke-linejoin:miter;stroke-miterlimit:2;"/></g><g id="sprotty_fsm$state/state$Reading_to_fsm$state/state$ReadingAPR" class="sprotty-edge transition" style="fill:none;stroke:rgb(48, 48, 48);stroke-linejoin:round;"><g><path d=" M499.19531249999994,166 C582.6249999999999,181 582.6249999999999,188.5 582.6249999999998,195.58333333333331 C582.6249999999998,202.66666666666666 582.6249999999998,209.33333333333331 582.6249999999998,216 C582.6249999999998,222.66666666666666 582.6249999999998,229.33333333333331 582.6249999999998,237.66666666666666 C582.6249999999999,246 582.6249999999999,256 595.28515625,276"/><path d=" M499.19531249999994,166 C582.6249999999999,181 582.6249999999999,188.5 582.6249999999998,195.58333333333331 C582.6249999999998,202.66666666666666 582.6249999999998,209.33333333333331 582.6249999999998,216 C582.6249999999998,222.66666666666666 582.6249999999998,229.33333333333331 582.6249999999998,237.66666666666666 C582.6249999999999,246 582.6249999999999,256 595.28515625,276" class="clickable"/></g><path d="M 595.28515625,276 L 602.28515625,273.5 L 602.28515625,278.5 Z" transform="rotate(-122.3341299840709 595.28515625 276)" class="arrow" style="fill:rgb(48, 48, 48);stroke-linejoin:miter;stroke-miterlimit:2;"/></g><g id="sprotty_fsm$state/state$Reading_to_fsm$state/state$Precharging" class="sprotty-edge transition" style="fill:none;stroke:rgb(48, 48, 48);stroke-linejoin:round;"><g><path d=" M487.07031249999994,166 C525.9453125,181 525.9453125,188.5 525.9453125,197.25 C525.9453125,206 525.9453124999998,216 525.9453124999998,226 C525.9453124999999,235.99999999999997 525.9453125,246 525.9453125,261 C525.9453125,276 525.9453125,296 525.9453125,309.75 C525.9453125,323.5 525.9453125,331 521.9765625,346"/><path d=" M487.07031249999994,166 C525.9453125,181 525.9453125,188.5 525.9453125,197.25 C525.9453125,206 525.9453124999998,216 525.9453124999998,226 C525.9453124999999,235.99999999999997 525.9453125,246 525.9453125,261 C525.9453125,276 525.9453125,296 525.9453125,309.75 C525.9453125,323.5 525.9453125,331 521.9765625,346" class="clickable"/></g><path d="M 521.9765625,346 L 528.9765625,343.5 L 528.9765625,348.5 Z" transform="rotate(-75.18008199256738 521.9765625 346)" class="arrow" style="fill:rgb(48, 48, 48);stroke-linejoin:miter;stroke-miterlimit:2;"/></g><g id="sprotty_fsm$state/state$Reading_to_fsm$state/state$Writing" class="sprotty-edge transition" style="fill:none;stroke:rgb(48, 48, 48);stroke-linejoin:round;"><g><path d=" M487.07031249999994,126 C487.07031249999994,101 487.07031249999994,76 487.07031249999994,76"/><path d=" M487.07031249999994,126 C487.07031249999994,101 487.07031249999994,76 487.07031249999994,76" class="clickable"/></g><path d="M 487.07031249999994,76 L 494.07031249999994,73.5 L 494.07031249999994,78.5 Z" transform="rotate(90 487.07031249999994 76)" class="arrow" style="fill:rgb(48, 48, 48);stroke-linejoin:miter;stroke-miterlimit:2;"/></g><g id="sprotty_fsm$state/state$Reading_to_fsm$state/state$BankActive" class="sprotty-edge transition" style="fill:none;stroke:rgb(48, 48, 48);stroke-linejoin:round;"><g><path d=" M462.82031249999994,166 C462.82031249999994,166 251.96919642857137,181 228.54129464285708,196"/><path d=" M462.82031249999994,166 C462.82031249999994,166 251.96919642857137,181 228.54129464285708,196" class="clickable"/></g><path d="M 228.54129464285708,196 L 235.54129464285708,193.5 L 235.54129464285708,198.5 Z" transform="rotate(-32.6298995090938 228.54129464285708 196)" class="arrow" style="fill:rgb(48, 48, 48);stroke-linejoin:miter;stroke-miterlimit:2;"/></g><g id="sprotty_fsm$state/state$Reading_to_fsm$state/state$WritingAPR" class="sprotty-edge transition" style="fill:none;stroke:rgb(48, 48, 48);stroke-linejoin:round;"><g><path d=" M474.94531249999994,166 C474.94531249999994,181 474.94531249999994,194.75 474.94531249999994,206.20833333333334 C474.94531249999994,217.66666666666669 474.9453124999999,226.83333333333331 474.94531249999983,236.4166666666666 C474.9453124999999,245.99999999999997 474.94531249999994,256 461.4296874999999,276"/><path d=" M474.94531249999994,166 C474.94531249999994,181 474.94531249999994,194.75 474.94531249999994,206.20833333333334 C474.94531249999994,217.66666666666669 474.9453124999999,226.83333333333331 474.94531249999983,236.4166666666666 C474.9453124999999,245.99999999999997 474.94531249999994,256 461.4296874999999,276" class="clickable"/></g><path d="M 461.4296874999999,276 L 468.4296874999999,273.5 L 468.4296874999999,278.5 Z" transform="rotate(-55.94990987254857 461.4296874999999 276)" class="arrow" style="fill:rgb(48, 48, 48);stroke-linejoin:miter;stroke-miterlimit:2;"/></g><g id="sprotty_fsm$state/state$ReadingAPR_to_fsm$state/state$Precharging" class="sprotty-edge transition" style="fill:none;stroke:rgb(48, 48, 48);stroke-linejoin:round;"><g><path d=" M595.28515625,316 C595.28515625,316 589.6563802083333,331 538.9973958333333,346"/><path d=" M595.28515625,316 C595.28515625,316 589.6563802083333,331 538.9973958333333,346" class="clickable"/></g><path d="M 538.9973958333333,346 L 545.9973958333333,343.5 L 545.9973958333333,348.5 Z" transform="rotate(-16.493891313473473 538.9973958333333 346)" class="arrow" style="fill:rgb(48, 48, 48);stroke-linejoin:miter;stroke-miterlimit:2;"/></g><g id="sprotty_fsm$state/state$Refreshing_to_fsm$state/state$Idle" class="sprotty-edge transition" style="fill:none;stroke:rgb(48, 48, 48);stroke-linejoin:round;"><g><path d=" M622.2682291666666,526 C613.7390625,486 536.9765625,446 536.9765625,446"/><path d=" M622.2682291666666,526 C613.7390625,486 536.9765625,446 536.9765625,446" class="clickable"/></g><path d="M 536.9765625,446 L 543.9765625,443.5 L 543.9765625,448.5 Z" transform="rotate(27.52346887338746 536.9765625 446)" class="arrow" style="fill:rgb(48, 48, 48);stroke-linejoin:miter;stroke-miterlimit:2;"/></g><g id="sprotty_fsm$state/state$Resetting_to_fsm$state/state$ResettingMRR" class="sprotty-edge transition" style="fill:none;stroke:rgb(48, 48, 48);stroke-linejoin:round;"><g><path d=" M360.3247767857143,686 C360.3247767857142,686 287.9444196428571,701 279.9021577380952,716"/><path d=" M360.3247767857143,686 C360.3247767857142,686 287.9444196428571,701 279.9021577380952,716" class="clickable"/></g><path d="M 279.9021577380952,716 L 286.9021577380952,713.5 L 286.9021577380952,718.5 Z" transform="rotate(-61.8019804290205 279.9021577380952 716)" class="arrow" style="fill:rgb(48, 48, 48);stroke-linejoin:miter;stroke-miterlimit:2;"/></g><g id="sprotty_fsm$state/state$Resetting_to_fsm$state/state$ResettingPD" class="sprotty-edge transition" style="fill:none;stroke:rgb(48, 48, 48);stroke-linejoin:round;"><g><path d=" M407.14620535714283,686 C407.14620535714283,686 488.5921874999999,701 497.64174107142856,716"/><path d=" M407.14620535714283,686 C407.14620535714283,686 488.5921874999999,701 497.64174107142856,716" class="clickable"/></g><path d="M 497.64174107142856,716 L 504.64174107142856,713.5 L 504.64174107142856,718.5 Z" transform="rotate(-121.10273069555282 497.64174107142856 716)" class="arrow" style="fill:rgb(48, 48, 48);stroke-linejoin:miter;stroke-miterlimit:2;"/></g><g id="sprotty_fsm$state/state$Resetting_to_fsm$state/state$Config" class="sprotty-edge transition" style="fill:none;stroke:rgb(48, 48, 48);stroke-linejoin:round;"><g><path d=" M372.03013392857144,686 C372.0301339285714,686 364.3774553571428,701 363.5271577380952,716"/><path d=" M372.03013392857144,686 C372.0301339285714,686 364.3774553571428,701 363.5271577380952,716" class="clickable"/></g><path d="M 363.5271577380952,716 L 370.5271577380952,713.5 L 370.5271577380952,718.5 Z" transform="rotate(-86.75557453624592 363.5271577380952 716)" class="arrow" style="fill:rgb(48, 48, 48);stroke-linejoin:miter;stroke-miterlimit:2;"/></g><g id="sprotty_fsm$state/state$Resetting_to_fsm$state/state$Idle" class="sprotty-edge transition" style="fill:none;stroke:rgb(48, 48, 48);stroke-linejoin:round;"><g><path d=" M357.3984375,646 C326.9765625,636 326.9765625,631 326.9765625,620.1666666666667 C326.9765625,609.3333333333335 326.9765625,592.6666666666667 326.9765625,580.1666666666667 C326.9765625,567.6666666666666 326.9765625,559.3333333333333 326.97656249999994,550.9999999999999 C326.97656249999994,542.6666666666666 326.9765625,534.3333333333334 326.9765625,520.1666666666667 C326.9765625,506 326.9765625,486 486.97656249999994,446"/><path d=" M357.3984375,646 C326.9765625,636 326.9765625,631 326.9765625,620.1666666666667 C326.9765625,609.3333333333335 326.9765625,592.6666666666667 326.9765625,580.1666666666667 C326.9765625,567.6666666666666 326.9765625,559.3333333333333 326.97656249999994,550.9999999999999 C326.97656249999994,542.6666666666666 326.9765625,534.3333333333334 326.9765625,520.1666666666667 C326.9765625,506 326.9765625,486 486.97656249999994,446" class="clickable"/></g><path d="M 486.97656249999994,446 L 493.97656249999994,443.5 L 493.97656249999994,448.5 Z" transform="rotate(165.96375653207352 486.97656249999994 446)" class="arrow" style="fill:rgb(48, 48, 48);stroke-linejoin:miter;stroke-miterlimit:2;"/></g><g id="sprotty_fsm$state/state$ResettingMRR_to_fsm$state/state$Resetting" class="sprotty-edge transition" style="fill:none;stroke:rgb(48, 48, 48);stroke-linejoin:round;"><g><path d=" M241.48549107142856,716 C252.1988839285714,701 348.6194196428571,686 348.61941964285717,686"/><path d=" M241.48549107142856,716 C252.1988839285714,701 348.6194196428571,686 348.61941964285717,686" class="clickable"/></g><path d="M 348.61941964285717,686 L 355.61941964285717,683.5 L 355.61941964285717,688.5 Z" transform="rotate(171.15746020519143 348.61941964285717 686)" class="arrow" style="fill:rgb(48, 48, 48);stroke-linejoin:miter;stroke-miterlimit:2;"/></g><g id="sprotty_fsm$state/state$ResettingPD_to_fsm$state/state$Resetting" class="sprotty-edge transition" style="fill:none;stroke:rgb(48, 48, 48);stroke-linejoin:round;"><g><path d=" M463.2927827380952,716 C456.50758928571423,701 395.44084821428567,686 395.4408482142857,686"/><path d=" M463.2927827380952,716 C456.50758928571423,701 395.44084821428567,686 395.4408482142857,686" class="clickable"/></g><path d="M 395.4408482142857,686 L 402.4408482142857,683.5 L 402.4408482142857,688.5 Z" transform="rotate(13.800504153798055 395.4408482142857 686)" class="arrow" style="fill:rgb(48, 48, 48);stroke-linejoin:miter;stroke-miterlimit:2;"/></g><g id="sprotty_fsm$state/state$SelfRefreshing_to_fsm$state/state$Idle" class="sprotty-edge transition" style="fill:none;stroke:rgb(48, 48, 48);stroke-linejoin:round;"><g><path d=" M487.13281249999994,526 C490.11718749999994,486 516.9765625,446 516.9765625,446"/><path d=" M487.13281249999994,526 C490.11718749999994,486 516.9765625,446 516.9765625,446" class="clickable"/></g><path d="M 516.9765625,446 L 523.9765625,443.5 L 523.9765625,448.5 Z" transform="rotate(123.88074354826759 516.9765625 446)" class="arrow" style="fill:rgb(48, 48, 48);stroke-linejoin:miter;stroke-miterlimit:2;"/></g><g id="sprotty_fsm$state/state$Writing_to_fsm$state/state$WritingAPR" class="sprotty-edge transition" style="fill:none;stroke:rgb(48, 48, 48);stroke-linejoin:round;"><g><path d=" M467.07031249999994,76 C423.9453124999999,101 423.94531249999994,113.5 423.9453125,124.33333333333334 C423.94531249999994,135.16666666666669 423.9453124999999,144.33333333333331 423.9453124999999,153.49999999999997 C423.9453124999999,162.66666666666666 423.94531249999994,171.83333333333331 423.9453125,185.58333333333334 C423.94531249999994,199.33333333333334 423.9453125,217.6666666666667 423.9453125,231.83333333333337 C423.94531249999994,246 423.9453124999999,256 437.4609374999999,276"/><path d=" M467.07031249999994,76 C423.9453124999999,101 423.94531249999994,113.5 423.9453125,124.33333333333334 C423.94531249999994,135.16666666666669 423.9453124999999,144.33333333333331 423.9453124999999,153.49999999999997 C423.9453124999999,162.66666666666666 423.94531249999994,171.83333333333331 423.9453125,185.58333333333334 C423.94531249999994,199.33333333333334 423.9453125,217.6666666666667 423.9453125,231.83333333333337 C423.94531249999994,246 423.9453124999999,256 437.4609374999999,276" class="clickable"/></g><path d="M 437.4609374999999,276 L 444.4609374999999,273.5 L 444.4609374999999,278.5 Z" transform="rotate(-124.05009012745133 437.4609374999999 276)" class="arrow" style="fill:rgb(48, 48, 48);stroke-linejoin:miter;stroke-miterlimit:2;"/></g><g id="sprotty_fsm$state/state$Writing_to_fsm$state/state$Precharging" class="sprotty-edge transition" style="fill:none;stroke:rgb(48, 48, 48);stroke-linejoin:round;"><g><path d=" M507.07031249999994,76 C684.6249999999999,101 684.6249999999998,113.49999999999999 684.6249999999998,124.33333333333331 C684.6249999999998,135.16666666666669 684.6249999999998,144.33333333333331 684.6249999999998,153.49999999999997 C684.6249999999998,162.66666666666666 684.6249999999998,171.83333333333331 684.6249999999998,188.91666666666666 C684.6249999999999,206 684.6249999999999,231 684.6249999999999,248.5 C684.6249999999998,266 684.6249999999998,276 684.6249999999998,285.99999999999994 C684.6249999999999,296 684.6249999999998,306 684.6249999999998,314.75 C684.6249999999998,323.5 684.6249999999999,331 556.0182291666666,346"/><path d=" M507.07031249999994,76 C684.6249999999999,101 684.6249999999998,113.49999999999999 684.6249999999998,124.33333333333331 C684.6249999999998,135.16666666666669 684.6249999999998,144.33333333333331 684.6249999999998,153.49999999999997 C684.6249999999998,162.66666666666666 684.6249999999998,171.83333333333331 684.6249999999998,188.91666666666666 C684.6249999999999,206 684.6249999999999,231 684.6249999999999,248.5 C684.6249999999998,266 684.6249999999998,276 684.6249999999998,285.99999999999994 C684.6249999999999,296 684.6249999999998,306 684.6249999999998,314.75 C684.6249999999998,323.5 684.6249999999999,331 556.0182291666666,346" class="clickable"/></g><path d="M 556.0182291666666,346 L 563.0182291666666,343.5 L 563.0182291666666,348.5 Z" transform="rotate(-6.652612745678331 556.0182291666666 346)" class="arrow" style="fill:rgb(48, 48, 48);stroke-linejoin:miter;stroke-miterlimit:2;"/></g><g id="sprotty_fsm$state/state$Writing_to_fsm$state/state$Reading" class="sprotty-edge transition" style="fill:none;stroke:rgb(48, 48, 48);stroke-linejoin:round;"><g><path d=" M477.07031249999994,76 C477.07031249999994,76 464.24531249999995,101 462.82031249999994,126"/><path d=" M477.07031249999994,76 C477.07031249999994,76 464.24531249999995,101 462.82031249999994,126" class="clickable"/></g><path d="M 462.82031249999994,126 L 469.82031249999994,123.5 L 469.82031249999994,128.5 Z" transform="rotate(-86.73767061459705 462.82031249999994 126)" class="arrow" style="fill:rgb(48, 48, 48);stroke-linejoin:miter;stroke-miterlimit:2;"/></g><g id="sprotty_fsm$state/state$Writing_to_fsm$state/state$BankActive" class="sprotty-edge transition" style="fill:none;stroke:rgb(48, 48, 48);stroke-linejoin:round;"><g><path d=" M447.07031249999994,76 C155.26785714285708,101 155.26785714285708,113.5 155.26785714285708,123.08333333333333 C155.26785714285708,132.66666666666666 155.26785714285708,139.33333333333331 155.26785714285708,146 C155.26785714285708,152.66666666666666 155.26785714285708,159.33333333333331 155.26785714285708,166.41666666666666 C155.26785714285708,173.5 155.26785714285708,181 171.21316964285708,196"/><path d=" M447.07031249999994,76 C155.26785714285708,101 155.26785714285708,113.5 155.26785714285708,123.08333333333333 C155.26785714285708,132.66666666666666 155.26785714285708,139.33333333333331 155.26785714285708,146 C155.26785714285708,152.66666666666666 155.26785714285708,159.33333333333331 155.26785714285708,166.41666666666666 C155.26785714285708,173.5 155.26785714285708,181 171.21316964285708,196" class="clickable"/></g><path d="M 171.21316964285708,196 L 178.21316964285708,193.5 L 178.21316964285708,198.5 Z" transform="rotate(-136.74971826203978 171.21316964285708 196)" class="arrow" style="fill:rgb(48, 48, 48);stroke-linejoin:miter;stroke-miterlimit:2;"/></g><g id="sprotty_fsm$state/state$Writing_to_fsm$state/state$ReadingAPR" class="sprotty-edge transition" style="fill:none;stroke:rgb(48, 48, 48);stroke-linejoin:round;"><g><path d=" M497.07031249999994,76 C633.6249999999999,101 633.625,113.5 633.625,124.33333333333334 C633.625,135.16666666666669 633.625,144.33333333333331 633.625,153.49999999999997 C633.6249999999999,162.66666666666666 633.625,171.83333333333331 633.625,185.58333333333334 C633.625,199.33333333333334 633.625,217.6666666666667 633.625,231.83333333333337 C633.625,246 633.6249999999999,256 620.96484375,276"/><path d=" M497.07031249999994,76 C633.6249999999999,101 633.625,113.5 633.625,124.33333333333334 C633.625,135.16666666666669 633.625,144.33333333333331 633.625,153.49999999999997 C633.6249999999999,162.66666666666666 633.625,171.83333333333331 633.625,185.58333333333334 C633.625,199.33333333333334 633.625,217.6666666666667 633.625,231.83333333333337 C633.625,246 633.6249999999999,256 620.96484375,276" class="clickable"/></g><path d="M 620.96484375,276 L 627.96484375,273.5 L 627.96484375,278.5 Z" transform="rotate(-57.66587001592957 620.96484375 276)" class="arrow" style="fill:rgb(48, 48, 48);stroke-linejoin:miter;stroke-miterlimit:2;"/></g><g id="sprotty_fsm$state/state$WritingAPR_to_fsm$state/state$Precharging" class="sprotty-edge transition" style="fill:none;stroke:rgb(48, 48, 48);stroke-linejoin:round;"><g><path d=" M437.4609374999999,316 C437.46093749999994,316 444.2104166666666,331 504.95572916666663,346"/><path d=" M437.4609374999999,316 C437.46093749999994,316 444.2104166666666,331 504.95572916666663,346" class="clickable"/></g><path d="M 504.95572916666663,346 L 511.95572916666663,343.5 L 511.95572916666663,348.5 Z" transform="rotate(-166.12928461546105 504.95572916666663 346)" class="arrow" style="fill:rgb(48, 48, 48);stroke-linejoin:miter;stroke-miterlimit:2;"/></g></g></g></svg>